<svg height="1600" node-id="1" sillyvg="true" template-height="1600" template-width="1600" version="1.1" viewBox="0 0 1600 1600" width="1600" xmlns="http://www.w3.org/2000/svg" xmlns:xlink="http://www.w3.org/1999/xlink"><defs node-id="12"></defs><path d="M 0.00 0.00 L 1600.00 0.00 L 1600.00 1600.00 L 0.00 1600.00 Z" fill="#ffffff" fill-opacity="0" fill-rule="nonzero" node-id="14" stroke="none" target-height="1600" target-width="1600" target-x="0" target-y="0"/><path d="M 1428.00 1088.50 C 1428.00 1171.07 1151.76 1238.00 811.00 1238.00 C 470.24 1238.00 194.00 1171.07 194.00 1088.50 C 194.00 1005.93 470.24 939.00 811.00 939.00 C 1151.76 939.00 1428.00 1005.93 1428.00 1088.50 Z" fill="#d9d9d9" fill-rule="nonzero" node-id="16" stroke="none" target-height="299" target-width="1234" target-x="194" target-y="939"/><path d="M 813.49 590.94 L 365.39 669.15 L 624.27 771.82 L 1181.48 656.58 L 813.49 590.94 Z" fill="#d9d9d9" fill-rule="nonzero" node-id="18" stroke="none" target-height="180.88397" target-width="816.088" target-x="365.392" target-y="590.937"/><path d="M 1170.14 1022.80 L 619.59 1176.00 L 621.60 778.54 L 1172.00 659.00 L 1170.14 1022.80 Z M 603.61 777.24 L 598.85 1172.86 L 357.85 1048.36 L 338.00 679.79 L 603.61 777.24 Z" fill="#ffffff" fill-rule="nonzero" node-id="20" stroke="none" target-height="517" target-width="834" target-x="338" target-y="659"/><path d="M 1182.71 645.97 L 1183.00 666.75 L 1182.00 666.95 L 1180.13 1030.89 L 608.76 1189.73 L 608.76 1190.00 L 347.18 1055.00 L 326.16 665.05 L 326.00 664.99 L 326.16 664.96 L 326.14 664.74 L 326.56 664.89 L 812.87 580.00 L 1182.71 645.97 Z M 622.66 782.64 L 621.12 782.03 L 619.12 1175.87 L 1169.60 1022.83 L 1171.41 669.14 L 622.66 782.64 Z M 357.42 1048.37 L 598.39 1172.74 L 603.15 777.54 L 337.57 680.20 L 357.42 1048.37 Z M 364.73 668.97 L 616.83 768.95 L 1156.00 651.95 L 812.85 590.74 L 364.73 668.97 Z" fill="#000000" fill-rule="nonzero" node-id="22" stroke="none" target-height="610" target-width="857" target-x="326" target-y="580"/><path d="M 687.14 897.00 L 635.00 786.24 L 1179.38 658.00 L 1265.00 763.04 L 687.14 897.00 Z" fill="#ffffff" fill-rule="nonzero" node-id="24" stroke="none" target-height="239" target-width="630" target-x="635" target-y="658"/><path d="M 194.00 752.96 L 327.90 677.00 L 592.00 782.21 L 469.43 869.00 L 194.00 752.96 Z" fill="#ffffff" fill-rule="nonzero" node-id="26" stroke="none" target-height="192" target-width="398" target-x="194" target-y="677"/><path d="M 1284.00 769.32 L 680.98 909.00 L 619.60 778.71 L 1183.40 646.00 L 1284.00 769.32 Z M 634.74 786.03 L 686.90 896.75 L 1265.05 762.83 L 1179.39 657.83 L 634.74 786.03 Z M 614.34 779.17 L 471.29 881.27 L 171.00 753.74 L 327.77 664.10 L 614.34 779.17 Z M 194.79 752.34 L 469.97 869.21 L 592.44 781.80 L 328.57 675.84 L 194.79 752.34 Z" fill="#000000" fill-rule="nonzero" node-id="28" stroke="none" target-height="263" target-width="1113" target-x="171" target-y="646"/><path d="M 644.00 765.44 C 799.15 585.78 958.67 535.33 1154.35 876.58 C 1156.83 880.90 1175.78 869.23 1185.71 876.58 C 1210.89 895.18 1213.49 1019.57 1162.66 988.51 C 1142.15 975.98 1102.54 958.50 1057.05 959.40 C 1116.09 1024.78 1209.80 1084.34 1311.17 1025.89 C 1480.13 928.46 1444.29 1129.18 1330.92 1148.96 C 1235.16 1165.67 1053.83 1077.33 994.07 973.56 C 985.30 977.54 976.52 982.48 967.83 988.51 C 951.93 999.56 869.53 1101.90 844.09 1101.90 C 777.86 1101.90 775.53 980.56 829.49 980.56 C 855.61 980.56 775.17 773.28 746.37 765.43 C 723.33 759.16 668.68 780.50 644.00 765.44 Z" fill="#000000" fill-rule="nonzero" node-id="30" stroke="none" target-height="630.33905" target-width="836.1301" target-x="644" target-y="535.331"/></svg>